<svg width="52" height="52" viewBox="0 0 52 52" fill="none" xmlns="http://www.w3.org/2000/svg">
<g clip-path="url(#clip0_1_80)">
<path d="M26 0C32.8956 0 39.5088 2.73928 44.3848 7.61522C49.2607 12.4912 52 19.1044 52 26C52 32.8956 49.2607 39.5088 44.3848 44.3848C39.5088 49.2607 32.8956 52 26 52C19.1044 52 12.4912 49.2607 7.61522 44.3848C2.73928 39.5088 0 32.8956 0 26C0 19.1044 2.73928 12.4912 7.61522 7.61522C12.4912 2.73928 19.1044 0 26 0ZM23.5625 12.1875V26C23.5625 26.8125 23.9687 27.5742 24.6492 28.0312L34.3992 34.5312C35.5164 35.2828 37.0297 34.9781 37.7812 33.8508C38.5328 32.7234 38.2281 31.2203 37.1008 30.4688L28.4375 24.7V12.1875C28.4375 10.8367 27.3508 9.75 26 9.75C24.6492 9.75 23.5625 10.8367 23.5625 12.1875Z" fill="white"/>
</g>
<defs>
<clipPath id="clip0_1_80">
<rect width="52" height="52" fill="white"/>
</clipPath>
</defs>
</svg>
