<svg width="65" height="44" viewBox="0 0 65 44" fill="none" xmlns="http://www.w3.org/2000/svg">
<path d="M8.125 5.5C7.00781 5.5 6.09375 6.325 6.09375 7.33333V9.86563L27.9932 26.0906C30.6211 28.0385 34.3916 28.0385 37.0195 26.0906L58.9062 9.86563V7.33333C58.9062 6.325 57.9922 5.5 56.875 5.5H8.125ZM6.09375 16.9813V36.6667C6.09375 37.675 7.00781 38.5 8.125 38.5H56.875C57.9922 38.5 58.9062 37.675 58.9062 36.6667V16.9813L40.8789 30.3417C36.0039 33.951 28.9834 33.951 24.1211 30.3417L6.09375 16.9813ZM0 7.33333C0 3.28854 3.64355 0 8.125 0H56.875C61.3564 0 65 3.28854 65 7.33333V36.6667C65 40.7115 61.3564 44 56.875 44H8.125C3.64355 44 0 40.7115 0 36.6667V7.33333Z" fill="white"/>
</svg>
