<svg width="48" height="55" viewBox="0 0 48 55" fill="none" xmlns="http://www.w3.org/2000/svg">
<g clip-path="url(#clip0_1_71)">
<path d="M42.8571 3.4375H5.14286C3.77889 3.4375 2.47078 3.98075 1.50631 4.94773C0.541835 5.91472 0 7.22623 0 8.59375L0 46.4062C0 47.7738 0.541835 49.0853 1.50631 50.0523C2.47078 51.0193 3.77889 51.5625 5.14286 51.5625H19.8482V35.2011H13.0982V27.5H19.8482V21.6305C19.8482 14.9542 23.8125 11.2664 29.8843 11.2664C32.7921 11.2664 35.8329 11.7863 35.8329 11.7863V18.3391H32.4825C29.1814 18.3391 28.1518 20.393 28.1518 22.4995V27.5H35.5211L34.3425 35.2011H28.1518V51.5625H42.8571C44.2211 51.5625 45.5292 51.0193 46.4937 50.0523C47.4582 49.0853 48 47.7738 48 46.4062V8.59375C48 7.22623 47.4582 5.91472 46.4937 4.94773C45.5292 3.98075 44.2211 3.4375 42.8571 3.4375Z" fill="white"/>
</g>
<defs>
<clipPath id="clip0_1_71">
<rect width="48" height="55" fill="white"/>
</clipPath>
</defs>
</svg>
