<svg width="48" height="52" viewBox="0 0 48 52" fill="none" xmlns="http://www.w3.org/2000/svg">
<g clip-path="url(#clip0_1_74)">
<path d="M15.4594 2.49841C14.7375 0.609346 12.8344 -0.396123 11.0156 0.142158L2.76562 2.57966C1.13438 3.06716 0 4.67185 0 6.49997C0 31.6265 18.8063 52 42 52C43.6875 52 45.1688 50.7711 45.6188 49.0039L47.8688 40.0664C48.3656 38.0961 47.4375 36.0343 45.6937 35.2523L36.6937 31.1898C35.1656 30.4992 33.3938 30.9765 32.3531 32.3679L28.5656 37.375C21.9656 33.9929 16.6219 28.2039 13.5 21.0539L18.1219 16.9609C19.4063 15.8234 19.8469 13.914 19.2094 12.2586L15.4594 2.50856V2.49841Z" fill="white"/>
</g>
<defs>
<clipPath id="clip0_1_74">
<rect width="48" height="52" fill="white"/>
</clipPath>
</defs>
</svg>
